<svg width="44" height="42" fill="none" xmlns="http://www.w3.org/2000/svg"><g clip-path="url(#clip0_75_931)"><mask id="a" style="mask-type:luminance" maskUnits="userSpaceOnUse" x="0" y="0" width="44" height="42"><path d="M0 0h44v42H0V0z" fill="#fff"/></mask><g mask="url(#a)"><path d="M44.21 65.124a5.572 5.572 0 01.555 3.946 4.367 4.367 0 01-.12.423 4.8 4.8 0 01-1.714 2.285 4.776 4.776 0 01-2.704.904l-21.435.8a15.354 15.354 0 01-9.795-2.943c-.182-.139-.367-.288-.547-.43a10.41 10.41 0 01-.575-.495 15.233 15.233 0 01-4.715-9.006L.168 41.233a8.748 8.748 0 01.517-5.1 8.318 8.318 0 013.25-3.705 10.524 10.524 0 016.339-1.535l8.528.577a5.218 5.218 0 012.959 1.16 5.237 5.237 0 011.741 2.664l4.526 21.852a6.784 6.784 0 003.883 4.392l12.298 3.586z" fill="#53CFCB"/><path d="M5.301 31.714a10.817 10.817 0 014.974-.82l8.526.576a5.218 5.218 0 012.96 1.16 5.238 5.238 0 011.741 2.664l4.526 21.852a6.783 6.783 0 003.883 4.392l12.299 3.575c.043.072.112.21.19.378l-21.806.656a15.441 15.441 0 01-9.217-3.666 15.502 15.502 0 01-5.1-8.524L5.301 31.714z" fill="#50B4BC"/><path d="M40.17 35.83l-2.438-.432-10.005-.26.13-13.4 12.333-4.54-.021 18.632z" fill="#842D44"/><path d="M26.439 22.774h3.092v6.872H26.44v-6.872z" fill="#EB886C"/><path d="M21.082 12.863a2.33 2.33 0 011.233.04c.427.137.814.373 1.132.688.898-4.32 4.348-7.528 8.481-7.528 4.81 0 8.713 4.355 8.713 9.729 0 5.375-3.903 9.732-8.713 9.732-3.82 0-7.055-2.75-8.234-6.566a2.221 2.221 0 01-1.15.33c-1.564 0-3.094-1.918-3.04-3.744.035-1.042.582-2.394 1.578-2.68v-.002z" fill="#FFAA83"/><path d="M36.61 19.561c-2.168.261-4.358.27-6.527.029a3.278 3.278 0 002.008 3.088 3.258 3.258 0 003.602-.745 3.272 3.272 0 00.916-2.37v-.002z" fill="#AF3C47"/><path d="M29.083 15.579c0 .665.397 1.201.885 1.201s.882-.536.882-1.201-.396-1.201-.882-1.201-.885.538-.885 1.2zm7.641 0c0 .665.396 1.201.886 1.201.488 0 .882-.536.882-1.201s-.397-1.201-.883-1.201-.885.538-.885 1.2zm-5.862-2.335a.28.28 0 00.167-.056.288.288 0 00.069-.399 1.555 1.555 0 00-1.15-.637 1.572 1.572 0 00-1.27.593.29.29 0 00.266.457.287.287 0 00.19-.105 1.005 1.005 0 01.786-.369.99.99 0 01.712.394.287.287 0 00.23.122zm7.724 0c.06 0 .119-.02.168-.056a.288.288 0 00.068-.399 1.555 1.555 0 00-1.15-.637 1.572 1.572 0 00-1.27.593.289.289 0 00.26.414.287.287 0 00.18-.066.929.929 0 011.174-.258.93.93 0 01.324.287.29.29 0 00.246.122z" fill="#7F263F"/><path d="M21.082 12.863a2.34 2.34 0 011.233.04c.427.137.814.373 1.133.688.73-3.516 3.16-6.3 6.273-7.2-1.437 1.4-3.449 3.955-3.856 7.604-.086.76-.707 7.091 3.736 10.118a8.388 8.388 0 003.467 1.33c-.379.06-.765.09-1.149.093-3.819 0-7.055-2.751-8.232-6.567a2.226 2.226 0 01-1.15.331c-1.567 0-3.095-1.918-3.04-3.744.042-1.054.59-2.405 1.585-2.692v-.002z" fill="#EB886C"/><path d="M35.384 19.68h.021a2.511 2.511 0 01-1.885 1.092 2.527 2.527 0 01-2.093-1.063h.032c1.307.085 2.62.075 3.925-.029z" fill="#F2E3E5"/><path d="M19.6 5.297a5.355 5.355 0 014.656-2.938A2.24 2.24 0 0124.829.63 2.192 2.192 0 0126.386 0c2.55.054 8.15 0 8.452 0a9.013 9.013 0 011.798.42c2.944 1.01 4.55 3.303 5.173 4.187a13.27 13.27 0 012.299 7.324V31.61a6.081 6.081 0 01-1.842 3.347c-.422.371-1.405 1.232-2.077.878-.575-.307-.575-1.33-.575-1.48V13.768c.018-.415.066-2.757-1.411-4.746a6.322 6.322 0 00-.807-.894A6.562 6.562 0 0035.69 7.02a8.41 8.41 0 00-3.058-.723 8.493 8.493 0 00-2.2.136c.029.22.42 3.499-2.141 5.668a6.424 6.424 0 01-4.834 1.408h-.112a2.845 2.845 0 00-1.037-.608 2.4 2.4 0 00-1.23-.036c-1.003.287-1.546 1.655-1.578 2.683-.049 1.821 1.48 3.745 3.043 3.745a2.24 2.24 0 001.15-.334 9.821 9.821 0 002.745 4.374v6.337h1.45c.105 1.974.216 3.956.33 5.948-3.626-.36-6.365-1.239-7.545-2.174a4.93 4.93 0 01-1.15-1.334 4.289 4.289 0 01-.494-2.079V7.314c.057-.703.25-1.389.569-2.018v.001z" fill="#A4434C"/><path d="M43.313 53.878a.86.86 0 00.842-1.05.863.863 0 00-.25-.44 17.25 17.25 0 01-4.632-7.408c-.928-2.966-1.945-7.869-3.02-14.576a.866.866 0 00-.99-.68.863.863 0 00-.711.968c1.09 6.786 2.123 11.77 3.078 14.818.089.288.16.504.238.723a18.956 18.956 0 004.85 7.419.86.86 0 00.595.226z" fill="#EB886C"/><path d="M21.036 30.125a11.407 11.407 0 0114.018-.13c-.156 2.2.388 4.394 1.552 6.267a3.31 3.31 0 01-1.724 2.767l.523 12.06h-12.27a32.28 32.28 0 00.108-14.611 31.262 31.262 0 00-2.207-6.354z" fill="#DF1940"/><path d="M27.683 27.66c1.22-.047 2.439.105 3.61.45.416 1.268 1.043 3.713.054 4.778-.449.488-1.1.546-1.55.578-2.194.195-3.927-1.83-4.746-2.79a10.528 10.528 0 01-1.394-2.11 11.315 11.315 0 014.026-.907z" fill="#EB886C"/><path d="M26.74 47.513c3.6 0 6.66-8.204 8.696-14.637l4.599-1.73a.863.863 0 00.48-1.102.863.863 0 00-1.084-.516L34.428 31.4a.862.862 0 00-.52.55c-1.25 3.986-2.472 7.2-3.627 9.53-2.026 4.102-3.273 4.321-3.607 4.298h-.08c-.67-.124-2.948-1.507-4.218-14.148a.87.87 0 00-.949-.777.866.866 0 00-.775.95c.643 6.403 1.925 14.994 5.62 15.674.08.017.163.028.244.034l.225.002z" fill="#FFAA83"/></g></g><defs><clipPath id="clip0_75_931"><path fill="#fff" d="M0 0h44v42H0z"/></clipPath></defs></svg>