<svg width="44" height="40" fill="none" xmlns="http://www.w3.org/2000/svg"><path d="M9.126 7.552h33.9v27.812h-33.9V7.552z" fill="#fff"/><mask id="a" style="mask-type:alpha" maskUnits="userSpaceOnUse" x="0" y="0" width="44" height="40"><path fill-rule="evenodd" clip-rule="evenodd" d="M43.026 0H0v40h43.026V0z" fill="#fff"/></mask><g mask="url(#a)"><path fill-rule="evenodd" clip-rule="evenodd" d="M17.383 23.59c-1.69.002-3.202.007-4.076.01.85-3.09 3.283-7.598 5.85-10.857.766-.974 1.647-1.822 3.202-1.952l20.655-.01.002 3.758-18.598.009c-.365 0-1.073.098-1.073.098-2.516.505-4.227 5.358-5.962 8.943zm7.345 5.62c.916 0 1.665.755 1.665 1.684 0 .193-.032.377-.091.55a1.664 1.664 0 01-1.565 1.137 1.672 1.672 0 01-1.574-1.13 1.678 1.678 0 011.565-2.24zm-3.522 2.18c.274 1.788 1.792 3.163 3.62 3.163h.004a3.588 3.588 0 002.582-1.1 3.739 3.739 0 001.02-2.08 3.89 3.89 0 00.045-.566c-.007-2.056-1.643-3.729-3.665-3.728a3.6 3.6 0 00-2.589 1.1 3.75 3.75 0 00-1.017 3.21zM4.063 8.705C8.673.015 11.288.013 12.273.012L38.04 0c2.74-.001 4.97 2.233 4.971 4.98l.002 3.894-20.842.01c-.859.003-1.866.093-2.916 1.063l-5.05.017a2.645 2.645 0 00-1.902.81 2.762 2.762 0 00-.786 1.949l.002.12.001 2.27c.001.762.65 1.421 1.546 1.568l.25.041-.012-4.104h-.521c.047-.755.67-1.363 1.427-1.364l3.799-.01c-3.46 3.992-6.953 11.05-6.95 13.844l.002.402h2.116v1.418l-2.112.003.009 3.156c0 .38.082 1.09 1.15 1.086l7.743-.018a5 5 0 011.386-4.094 4.808 4.808 0 013.469-1.464c2.676-.002 4.86 2.227 4.868 4.968 0 .192-.013.36-.033.546 3.607-.008 9.045.003 13.367-.006l.002 3.92c.001 2.745-2.227 4.981-4.967 4.983L12.29 40c-.986 0-3.605.002-8.224-8.792C2.192 27.638.001 22.538 0 19.916c-.001-2.62 2.187-7.677 4.063-11.21zm20.581 10.172l18.374-.009v1.573l-19.956.01.394-.883c.249-.428.7-.69 1.188-.69zm8.956 6.93l-.114-.195 9.535-.004v.898l-7.994.004c-.617 0-1.176-.275-1.427-.703z" fill="#C14C97"/></g></svg>