<svg width="24" height="25" fill="none" xmlns="http://www.w3.org/2000/svg"><path d="M6.444 6.5A1.444 1.444 0 005 7.944v.533A1.444 1.444 0 006.444 9.92h.533A1.444 1.444 0 008.42 8.477v-.533A1.444 1.444 0 006.977 6.5h-.533zm4.79 0A1.444 1.444 0 009.79 7.944v.533a1.445 1.445 0 001.444 1.444h.532a1.444 1.444 0 001.444-1.444v-.533A1.445 1.445 0 0011.766 6.5h-.532zm3.345 1.444A1.444 1.444 0 0116.023 6.5h.533A1.444 1.444 0 0118 7.944v.533a1.444 1.444 0 01-1.444 1.444h-.533a1.445 1.445 0 01-1.444-1.444v-.533zM6.444 11.29A1.445 1.445 0 005 12.734v.532a1.444 1.444 0 001.444 1.444h.533a1.445 1.445 0 001.444-1.444v-.532a1.445 1.445 0 00-1.444-1.444h-.533zm3.346 1.444a1.445 1.445 0 011.444-1.444h.532a1.444 1.444 0 011.444 1.444v.532a1.444 1.444 0 01-1.444 1.444h-.532a1.445 1.445 0 01-1.444-1.444v-.532zm6.233-1.444a1.445 1.445 0 00-1.444 1.444v.532a1.444 1.444 0 001.444 1.444h.533A1.445 1.445 0 0018 13.266v-.532a1.444 1.444 0 00-1.444-1.444h-.533zM5 17.523a1.444 1.444 0 011.444-1.444h.533a1.444 1.444 0 011.444 1.444v.533A1.444 1.444 0 016.977 19.5h-.533A1.444 1.444 0 015 18.056v-.533zm6.234-1.444a1.444 1.444 0 00-1.444 1.444v.533a1.445 1.445 0 001.444 1.444h.532a1.444 1.444 0 001.444-1.444v-.533a1.445 1.445 0 00-1.444-1.444h-.532z" fill="#4C9FC1"/></svg>