<svg width="24" height="24" fill="none" xmlns="http://www.w3.org/2000/svg"><path d="M19.326 5.778l-.624.416.624-.416zm0 10.444l-.624-.416.624.416zm-1.104 1.104l-.416-.624.416.624zM14 17.999l-.003-.75a.75.75 0 00-.747.75H14zM14 18l.67.335a.75.75 0 00.08-.335H14zm-4 0h-.75a.75.75 0 00.08.335L10 18zm0-.001h.75a.75.75 0 00-.747-.75l-.003.75zm-4.222-.673l.416-.624-.416.624zm-1.104-1.104l.624-.416-.624.416zm0-10.444l.624.416-.624-.416zm1.104-1.104l.416.624-.416-.624zm12.444 0l-.416.624.416-.624zM20.75 11c0-1.389 0-2.487-.088-3.362-.09-.888-.28-1.629-.712-2.277l-1.248.833c.241.361.39.827.468 1.596.08.781.08 1.79.08 3.21h1.5zm-.8 5.639c.433-.648.622-1.39.712-2.277.089-.875.088-1.973.088-3.362h-1.5c0 1.42 0 2.429-.08 3.21-.079.77-.227 1.235-.468 1.596l1.247.833zm-1.311 1.31a4.753 4.753 0 001.31-1.31l-1.247-.833c-.237.354-.542.66-.896.896l.833 1.247zm-4.636.8c1.076-.005 1.958-.025 2.69-.127.743-.102 1.38-.294 1.946-.672l-.833-1.248c-.316.21-.711.35-1.319.435-.62.085-1.408.107-2.49.112l.006 1.5zM14.75 18v-.001h-1.5V18h1.5zm-1.185 2.547l1.106-2.212-1.342-.67-1.105 2.21 1.341.672zm-3.13 0c.645 1.29 2.485 1.29 3.13 0l-1.341-.671a.25.25 0 01-.448 0l-1.341.67zm-1.106-2.212l1.106 2.212 1.341-.671-1.105-2.211-1.342.67zM9.25 18h1.5v-.001h-1.5zm-3.889-.05c.566.379 1.203.57 1.947.673.731.102 1.613.122 2.689.127l.006-1.5c-1.082-.005-1.87-.027-2.49-.112-.608-.084-1.003-.224-1.319-.435l-.833 1.247zm-1.31-1.31c.346.519.791.964 1.31 1.31l.833-1.247a3.25 3.25 0 01-.896-.896l-1.247.833zM3.25 11c0 1.389 0 2.487.088 3.362.09.888.28 1.629.713 2.277l1.247-.833c-.241-.361-.39-.827-.468-1.596-.08-.781-.08-1.79-.08-3.21h-1.5zm.8-5.639c-.433.648-.622 1.39-.712 2.277C3.25 8.513 3.25 9.61 3.25 11h1.5c0-1.42 0-2.429.08-3.21.079-.77.227-1.235.468-1.596L4.05 5.361zm1.311-1.31a4.75 4.75 0 00-1.31 1.31l1.247.833a3.25 3.25 0 01.896-.896L5.361 4.05zM11 3.25c-1.389 0-2.487 0-3.362.088-.888.09-1.629.28-2.277.713l.833 1.247c.361-.241.827-.39 1.596-.468.781-.08 1.79-.08 3.21-.08v-1.5zm2 0h-2v1.5h2v-1.5zm5.639.8c-.648-.433-1.39-.622-2.277-.712C15.487 3.25 14.39 3.25 13 3.25v1.5c1.42 0 2.429 0 3.21.08.77.079 1.235.227 1.596.468l.833-1.247zm1.31 1.311a4.751 4.751 0 00-1.31-1.31l-.833 1.247c.354.237.66.542.896.896l1.247-.833z" fill="#C14C97"/><circle cx="16" cy="11" r="1" fill="#C14C97" stroke="#C14C97" stroke-linecap="round"/><circle cx="12" cy="11" r="1" fill="#C14C97" stroke="#C14C97" stroke-linecap="round"/><circle cx="8" cy="11" r="1" fill="#C14C97" stroke="#C14C97" stroke-linecap="round"/></svg>