<svg width="22" height="22" viewBox="0 0 22 22" fill="none" xmlns="http://www.w3.org/2000/svg">
<path d="M3.66675 8.25C3.66675 5.65728 3.66675 4.36091 4.4722 3.55546C5.27766 2.75 6.57402 2.75 9.16675 2.75H12.8334C15.4261 2.75 16.7225 2.75 17.528 3.55546C18.3334 4.36091 18.3334 5.65728 18.3334 8.25V14.5086C18.3334 16.9683 18.3334 18.1982 17.5595 18.5743C16.7855 18.9505 15.8185 18.1907 13.8844 16.671L13.2654 16.1847C12.1779 15.3302 11.6342 14.903 11.0001 14.903C10.366 14.903 9.82224 15.3302 8.73474 16.1847L8.11576 16.671C6.18167 18.1907 5.21462 18.9505 4.44068 18.5743C3.66675 18.1982 3.66675 16.9683 3.66675 14.5086V8.25Z" fill="#C14C97" stroke="#C14C97" stroke-width="0.5"/>
</svg>
