<svg width="24" height="25" viewBox="0 0 24 25" fill="none" xmlns="http://www.w3.org/2000/svg">
<path d="M6.44444 6.5C6.06135 6.5 5.69395 6.65218 5.42307 6.92307C5.15218 7.19395 5 7.56135 5 7.94444V8.47672C5 8.85981 5.15218 9.22721 5.42307 9.4981C5.69395 9.76898 6.06135 9.92117 6.44444 9.92117H6.97672C7.35981 9.92117 7.72721 9.76898 7.9981 9.4981C8.26898 9.22721 8.42117 8.85981 8.42117 8.47672V7.94444C8.42117 7.56135 8.26898 7.19395 7.9981 6.92307C7.72721 6.65218 7.35981 6.5 6.97672 6.5H6.44444ZM11.2342 6.5C10.8511 6.5 10.4837 6.65218 10.2128 6.92307C9.94196 7.19395 9.78978 7.56135 9.78978 7.94444V8.47672C9.78978 8.85981 9.94196 9.22721 10.2128 9.4981C10.4837 9.76898 10.8511 9.92117 11.2342 9.92117H11.7658C11.9555 9.92117 12.1433 9.8838 12.3185 9.81121C12.4938 9.73862 12.653 9.63223 12.7872 9.4981C12.9213 9.36397 13.0277 9.20474 13.1003 9.02949C13.1729 8.85424 13.2102 8.66641 13.2102 8.47672V7.94444C13.2102 7.56135 13.058 7.19395 12.7872 6.92307C12.5163 6.65218 12.1489 6.5 11.7658 6.5H11.2342ZM14.5788 7.94444C14.5788 7.56135 14.731 7.19395 15.0019 6.92307C15.2728 6.65218 15.6402 6.5 16.0233 6.5H16.5556C16.9386 6.5 17.306 6.65218 17.5769 6.92307C17.8478 7.19395 18 7.56135 18 7.94444V8.47672C18 8.85981 17.8478 9.22721 17.5769 9.4981C17.306 9.76898 16.9386 9.92117 16.5556 9.92117H16.0233C15.6402 9.92117 15.2728 9.76898 15.0019 9.4981C14.731 9.22721 14.5788 8.85981 14.5788 8.47672V7.94444ZM6.44444 11.2898C6.06135 11.2898 5.69395 11.442 5.42307 11.7128C5.15218 11.9837 5 12.3511 5 12.7342V13.2658C5 13.4555 5.03736 13.6433 5.10995 13.8185C5.18254 13.9938 5.28894 14.153 5.42307 14.2872C5.5572 14.4213 5.71643 14.5277 5.89168 14.6003C6.06693 14.6729 6.25476 14.7102 6.44444 14.7102H6.97672C7.35981 14.7102 7.72721 14.558 7.9981 14.2872C8.26898 14.0163 8.42117 13.6489 8.42117 13.2658V12.7342C8.42117 12.3511 8.26898 11.9837 7.9981 11.7128C7.72721 11.442 7.35981 11.2898 6.97672 11.2898H6.44444ZM9.78978 12.7342C9.78978 12.3511 9.94196 11.9837 10.2128 11.7128C10.4837 11.442 10.8511 11.2898 11.2342 11.2898H11.7658C11.9555 11.2898 12.1433 11.3271 12.3185 11.3997C12.4938 11.4723 12.653 11.5787 12.7872 11.7128C12.9213 11.847 13.0277 12.0062 13.1003 12.1815C13.1729 12.3567 13.2102 12.5445 13.2102 12.7342V13.2658C13.2102 13.4555 13.1729 13.6433 13.1003 13.8185C13.0277 13.9938 12.9213 14.153 12.7872 14.2872C12.653 14.4213 12.4938 14.5277 12.3185 14.6003C12.1433 14.6729 11.9555 14.7102 11.7658 14.7102H11.2342C10.8511 14.7102 10.4837 14.558 10.2128 14.2872C9.94196 14.0163 9.78978 13.6489 9.78978 13.2658V12.7342ZM16.0233 11.2898C15.6402 11.2898 15.2728 11.442 15.0019 11.7128C14.731 11.9837 14.5788 12.3511 14.5788 12.7342V13.2658C14.5788 13.4555 14.6162 13.6433 14.6888 13.8185C14.7614 13.9938 14.8678 14.153 15.0019 14.2872C15.136 14.4213 15.2953 14.5277 15.4705 14.6003C15.6458 14.6729 15.8336 14.7102 16.0233 14.7102H16.5556C16.9386 14.7102 17.306 14.558 17.5769 14.2872C17.8478 14.0163 18 13.6489 18 13.2658V12.7342C18 12.3511 17.8478 11.9837 17.5769 11.7128C17.306 11.442 16.9386 11.2898 16.5556 11.2898H16.0233ZM5 17.5233C5 17.1402 5.15218 16.7728 5.42307 16.5019C5.69395 16.231 6.06135 16.0788 6.44444 16.0788H6.97672C7.35981 16.0788 7.72721 16.231 7.9981 16.5019C8.26898 16.7728 8.42117 17.1402 8.42117 17.5233V18.0556C8.42117 18.4386 8.26898 18.806 7.9981 19.0769C7.72721 19.3478 7.35981 19.5 6.97672 19.5H6.44444C6.06135 19.5 5.69395 19.3478 5.42307 19.0769C5.15218 18.806 5 18.4386 5 18.0556V17.5233ZM11.2342 16.0788C10.8511 16.0788 10.4837 16.231 10.2128 16.5019C9.94196 16.7728 9.78978 17.1402 9.78978 17.5233V18.0556C9.78978 18.4386 9.94196 18.806 10.2128 19.0769C10.4837 19.3478 10.8511 19.5 11.2342 19.5H11.7658C11.9555 19.5 12.1433 19.4626 12.3185 19.39C12.4938 19.3175 12.653 19.2111 12.7872 19.0769C12.9213 18.9428 13.0277 18.7836 13.1003 18.6083C13.1729 18.4331 13.2102 18.2452 13.2102 18.0556V17.5233C13.2102 17.1402 13.058 16.7728 12.7872 16.5019C12.5163 16.231 12.1489 16.0788 11.7658 16.0788H11.2342Z" fill="#4C9FC1"/>
</svg>
