<svg width="44" height="42" viewBox="0 0 44 42" fill="none" xmlns="http://www.w3.org/2000/svg">
<g clip-path="url(#clip0_75_931)">
<mask id="mask0_75_931" style="mask-type:luminance" maskUnits="userSpaceOnUse" x="0" y="0" width="44" height="42">
<path d="M0 0H44V42H0V0Z" fill="white"/>
</mask>
<g mask="url(#mask0_75_931)">
<path d="M44.2095 65.1242C44.8745 66.3256 45.0723 67.7312 44.7647 69.0701C44.7317 69.2131 44.6915 69.3543 44.6443 69.4932C44.318 70.4114 43.7205 71.2083 42.9314 71.7779C42.1422 72.3475 41.1988 72.6629 40.2265 72.6821L18.7922 73.4822C15.2877 73.6497 11.8315 72.6112 8.99694 70.539C8.81465 70.4004 8.63027 70.2513 8.45008 70.1096C8.25263 69.9512 8.0608 69.7859 7.87494 69.614C5.31944 67.2427 3.65469 64.0631 3.1596 60.6081L0.167604 41.2325C-0.172977 39.5189 0.00730484 37.7423 0.685128 36.1326C1.37032 34.5969 2.5037 33.3054 3.93589 32.4282C5.83367 31.2581 8.05252 30.7207 10.274 30.8931L18.8016 31.4696C19.8843 31.5389 20.9186 31.9444 21.7609 32.6296C22.6033 33.3149 23.2119 34.246 23.5023 35.2937L28.028 57.1463C28.3056 58.1231 28.7986 59.0249 29.4706 59.7851C30.1426 60.5454 30.9764 61.1445 31.9105 61.5384L44.2095 65.1242Z" fill="#53CFCB"/>
<path d="M5.30103 31.7142C6.87165 31.0525 8.57575 30.7712 10.2751 30.8931L18.8006 31.4695C19.8835 31.5387 20.918 31.944 21.7606 32.6293C22.6031 33.3146 23.2119 34.2458 23.5024 35.2936L28.0281 57.1462C28.3056 58.1231 28.7986 59.025 29.4706 59.7852C30.1426 60.5454 30.9764 61.1446 31.9106 61.5384L44.2096 65.1126C44.2526 65.185 44.3217 65.3226 44.3992 65.4906L22.5941 66.1468C19.2034 65.9724 15.9644 64.6843 13.3769 62.4813C10.7893 60.2782 8.99728 57.2828 8.27731 53.9574L5.30103 31.7142Z" fill="#50B4BC"/>
<path d="M40.1699 35.8302L37.7321 35.3976L27.7273 35.1382L27.8562 21.7371L40.1898 17.1979L40.1688 35.8302H40.1699Z" fill="#842D44"/>
<path d="M26.4387 22.7745H29.5313V29.6457H26.4387V22.7745Z" fill="#EB886C"/>
<path d="M21.0823 12.8625C21.4896 12.7652 21.9154 12.7793 22.3153 12.9035C22.7417 13.04 23.1293 13.2762 23.4468 13.5912C24.3446 9.27151 27.7954 6.06271 31.9283 6.06271C36.7379 6.06271 40.6413 10.4181 40.6413 15.792C40.6413 21.167 36.7379 25.5245 31.9283 25.5245C28.1087 25.5245 24.8726 22.7735 23.694 18.9578C23.3483 19.1709 22.9513 19.2854 22.5448 19.2885C20.9796 19.2885 19.4501 17.3702 19.5046 15.5442C19.5392 14.5016 20.086 13.1502 21.0823 12.8636V12.8625Z" fill="#FFAA83"/>
<path d="M36.6092 19.5615C34.4419 19.822 32.2519 19.8316 30.0825 19.5898C30.0734 20.0263 30.1516 20.4601 30.3124 20.8658C30.4732 21.2715 30.7134 21.6409 31.0188 21.9521C31.3242 22.2634 31.6886 22.5102 32.0907 22.6781C32.4927 22.846 32.9242 22.9315 33.3598 22.9297C33.7953 22.9279 34.2261 22.8387 34.6268 22.6675C35.0274 22.4962 35.3898 22.2464 35.6926 21.9326C35.9954 21.6188 36.2325 21.2475 36.3899 20.8404C36.5473 20.4334 36.6219 19.9989 36.6092 19.5625V19.5615Z" fill="#AF3C47"/>
<path d="M29.0829 15.5788C29.0829 16.2445 29.48 16.78 29.9682 16.78C30.4564 16.78 30.8503 16.2445 30.8503 15.5788C30.8503 14.9142 30.4543 14.3776 29.9682 14.3776C29.4821 14.3776 29.0829 14.9163 29.0829 15.5788ZM36.7243 15.5788C36.7243 16.2445 37.1203 16.78 37.6095 16.78C38.0977 16.78 38.4916 16.2445 38.4916 15.5788C38.4916 14.9142 38.0946 14.3776 37.6095 14.3776C37.1234 14.3776 36.7243 14.9163 36.7243 15.5788ZM30.8618 13.2436C30.9221 13.2432 30.9808 13.2237 31.0294 13.188C31.0909 13.1439 31.1326 13.0772 31.1453 13.0025C31.1581 12.9278 31.1409 12.8511 31.0975 12.789C30.964 12.6051 30.7919 12.4527 30.5934 12.3426C30.3949 12.2325 30.1747 12.1673 29.9483 12.1516C29.7051 12.1454 29.4639 12.1958 29.2434 12.2987C29.0229 12.4016 28.8292 12.5544 28.6775 12.7449C28.6332 12.8058 28.6143 12.8816 28.625 12.9562C28.6357 13.0308 28.675 13.0983 28.7346 13.1442C28.7943 13.1901 28.8694 13.2108 28.9441 13.2019C29.0188 13.1931 29.087 13.1553 29.1343 13.0966C29.2294 12.9803 29.3494 12.8868 29.4854 12.823C29.6214 12.7592 29.7699 12.7268 29.92 12.7281C30.0598 12.7394 30.1956 12.7804 30.3184 12.8482C30.4412 12.9161 30.5482 13.0094 30.6324 13.1218C30.6584 13.1587 30.6928 13.189 30.7326 13.2101C30.7725 13.2313 30.8167 13.2428 30.8618 13.2436ZM38.5859 13.2436C38.6462 13.2432 38.7049 13.2237 38.7535 13.188C38.815 13.1439 38.8567 13.0772 38.8694 13.0025C38.8822 12.9278 38.865 12.8511 38.8216 12.789C38.6881 12.6051 38.516 12.4527 38.3175 12.3426C38.1189 12.2325 37.8987 12.1673 37.6724 12.1516C37.4292 12.1454 37.1879 12.1957 36.9674 12.2986C36.7469 12.4015 36.5533 12.5543 36.4016 12.7449C36.3729 12.8039 36.3652 12.8709 36.3797 12.9349C36.3943 12.9989 36.4302 13.056 36.4816 13.0967C36.533 13.1374 36.5967 13.1593 36.6622 13.1587C36.7277 13.1581 36.791 13.1351 36.8416 13.0935C36.9299 12.9769 37.0444 12.8828 37.1758 12.8189C37.3072 12.755 37.4518 12.7232 37.5979 12.7259C37.7439 12.7287 37.8872 12.766 38.0161 12.8348C38.145 12.9036 38.2559 13.002 38.3397 13.1218C38.3675 13.161 38.4045 13.1926 38.4475 13.2139C38.4904 13.2352 38.538 13.2454 38.5859 13.2436Z" fill="#7F263F"/>
<path d="M21.0824 12.8625C21.4897 12.7657 21.9154 12.7798 22.3154 12.9035C22.7418 13.04 23.1294 13.2762 23.4479 13.5912C24.1781 10.0748 26.6086 7.29016 29.721 6.39136C28.2837 7.79101 26.2723 10.3457 25.8648 13.9955C25.7789 14.7557 25.1576 21.0861 29.6006 24.1133C30.643 24.8104 31.8278 25.265 33.0682 25.4436C32.689 25.5024 32.3034 25.5339 31.919 25.536C28.1004 25.536 24.8643 22.785 23.6868 18.9693C23.341 19.1825 22.943 19.2969 22.5365 19.3001C20.9703 19.3001 19.4418 17.3817 19.4963 15.5558C19.5392 14.5016 20.0861 13.1513 21.0824 12.8636V12.8625Z" fill="#EB886C"/>
<path d="M35.3843 19.6801H35.4053C35.193 19.9925 34.9133 20.2528 34.5868 20.4419C34.2603 20.631 33.8956 20.7438 33.5196 20.7721C33.1112 20.7772 32.7077 20.6832 32.3434 20.4981C31.9792 20.3131 31.6649 20.0426 31.4275 19.7095H31.4589C32.7664 19.7937 34.0783 19.7839 35.3843 19.6801Z" fill="#F2E3E5"/>
<path d="M19.5999 5.29726C20.0389 4.43179 20.7035 3.70164 21.5232 3.18436C22.343 2.66708 23.2872 2.38199 24.2556 2.35936C24.2245 2.04694 24.2595 1.73145 24.3582 1.43348C24.4569 1.13551 24.6172 0.861735 24.8286 0.630014C25.0342 0.427484 25.2776 0.267587 25.5449 0.159482C25.8122 0.0513768 26.0982 -0.00281382 26.3864 1.36535e-05C28.9353 0.0535637 34.5369 1.36535e-05 34.8376 1.36535e-05C35.4499 0.0780305 36.0526 0.218766 36.6363 0.420014C39.5801 1.43011 41.1861 3.72331 41.8095 4.60741C43.28 6.76779 44.0798 9.31605 44.1079 11.9312V31.6092C43.869 32.8941 43.2232 34.0676 42.2662 34.9556C41.844 35.3273 40.8614 36.1883 40.1888 35.8344C39.6137 35.5268 39.6137 34.5041 39.6137 34.3539V13.7676C39.6315 13.3529 39.6797 11.0114 38.2025 9.02161C37.9626 8.69871 37.6925 8.3995 37.3959 8.12806C36.8886 7.67199 36.3135 7.29791 35.6914 7.01926C34.7263 6.58808 33.689 6.34266 32.6334 6.29581C31.8972 6.24555 31.1577 6.29144 30.4334 6.43231C30.4617 6.65281 30.8524 9.93091 28.292 12.1002C27.6223 12.6487 26.849 13.0561 26.0184 13.2981C25.1878 13.54 24.3171 13.6115 23.4583 13.5083H23.3462C23.0476 13.234 22.694 13.0267 22.3091 12.9003C21.9092 12.7814 21.4854 12.7687 21.0792 12.8636C20.0756 13.1513 19.5329 14.5194 19.5015 15.5474C19.4522 17.3681 20.9807 19.2917 22.5438 19.2917C22.9503 19.2872 23.348 19.1718 23.694 18.9578C24.2028 20.6354 25.1506 22.1458 26.4388 23.3321V29.6688H27.8887C27.9945 31.6428 28.1045 33.6252 28.2198 35.6171C24.5929 35.2569 21.8544 34.3781 20.6738 33.4425C20.2136 33.0708 19.8239 32.6191 19.5235 32.109C19.1863 31.469 19.0165 30.7537 19.03 30.03V7.31431C19.0867 6.6109 19.28 5.92536 19.5989 5.29621L19.5999 5.29726Z" fill="#A4434C"/>
<path d="M43.3129 53.8776C43.4853 53.8778 43.6538 53.8261 43.7966 53.7292C43.9394 53.6324 44.0499 53.4948 44.1137 53.3343C44.1776 53.1738 44.192 52.9977 44.1549 52.8289C44.1178 52.6602 44.0311 52.5064 43.9058 52.3877C41.7524 50.3583 40.1569 47.807 39.2733 44.9799C38.3451 42.0136 37.3278 37.1112 36.253 30.4038C36.2079 30.1843 36.0797 29.9908 35.8952 29.8642C35.7106 29.7376 35.4843 29.6876 35.2638 29.7249C35.0433 29.7622 34.8459 29.8838 34.713 30.0641C34.5802 30.2444 34.5223 30.4693 34.5516 30.6915C35.6412 37.4776 36.6752 42.462 37.6295 45.5101C37.7186 45.7978 37.7898 46.0141 37.8684 46.2325C38.8769 49.0554 40.5393 51.5981 42.7189 53.6518C42.881 53.8001 43.0934 53.8809 43.3129 53.8776Z" fill="#EB886C"/>
<path d="M21.0361 30.1245C23.0261 28.5447 25.4845 27.6743 28.023 27.6507C30.5615 27.6271 33.0355 28.4517 35.0543 29.9943C34.8985 32.1952 35.4416 34.3891 36.6058 36.2617C36.582 36.8331 36.4107 37.3885 36.1086 37.8736C35.8066 38.3587 35.3841 38.757 34.8825 39.0295L35.4053 51.0888H23.1345C24.2869 46.2913 24.3246 41.2923 23.2435 36.478C22.7386 34.2867 21.9978 32.1565 21.0361 30.1245Z" fill="#DF1940"/>
<path d="M27.6832 27.6591C28.9027 27.6125 30.1216 27.765 31.2923 28.1106C31.7092 29.3779 32.3357 31.8234 31.3468 32.8881C30.8984 33.3763 30.2467 33.4341 29.7963 33.4656C27.6026 33.6609 25.8698 31.6365 25.0506 30.6768C24.5031 30.032 24.0353 29.3234 23.6572 28.5663C24.9325 28.0196 26.2971 27.7121 27.6832 27.6591Z" fill="#EB886C"/>
<path d="M26.7405 47.5125C30.3391 47.5125 33.3992 39.3088 35.4358 32.8755L40.0348 31.1461C40.2418 31.0608 40.4076 30.8982 40.4971 30.6925C40.5866 30.4869 40.5929 30.2545 40.5145 30.0444C40.4361 29.8343 40.2793 29.6629 40.0772 29.5666C39.8751 29.4702 39.6435 29.4564 39.4314 29.5281L34.428 31.4002C34.3053 31.4463 34.1948 31.5198 34.1047 31.6151C34.0147 31.7105 33.9475 31.8252 33.9084 31.9504C32.6575 35.9362 31.436 39.1503 30.2815 41.4802C28.2554 45.5815 27.0077 45.801 26.6745 45.7779H26.5949C25.9245 45.654 23.6459 44.2711 22.3762 31.6302C22.3532 31.401 22.2404 31.1903 22.0625 31.0445C21.8846 30.8987 21.6562 30.8297 21.4275 30.8527C21.1989 30.8756 20.9887 30.9887 20.8432 31.167C20.6977 31.3453 20.6289 31.5742 20.6518 31.8034C21.295 38.2063 22.5773 46.7974 26.2723 47.4768C26.3529 47.4936 26.4346 47.5051 26.5164 47.5114L26.7405 47.5125Z" fill="#FFAA83"/>
</g>
</g>
<defs>
<clipPath id="clip0_75_931">
<rect width="44" height="42" fill="white"/>
</clipPath>
</defs>
</svg>
