<svg width="44" height="40" viewBox="0 0 44 40" fill="none" xmlns="http://www.w3.org/2000/svg">
<path d="M9.12564 7.55151H43.0256V35.3644H9.12564V7.55151Z" fill="white"/>
<mask id="mask0_202_548" style="mask-type:alpha" maskUnits="userSpaceOnUse" x="0" y="0" width="44" height="40">
<path fill-rule="evenodd" clip-rule="evenodd" d="M43.0256 0H-4.57764e-05V40H43.0256V0Z" fill="white"/>
</mask>
<g mask="url(#mask0_202_548)">
<path fill-rule="evenodd" clip-rule="evenodd" d="M17.3827 23.5894C15.6936 23.5923 14.1806 23.5968 13.3067 23.6002C14.1575 20.5094 16.5901 16.0025 19.1561 12.743C19.9233 11.7688 20.8036 10.9215 22.3589 10.7909L43.0142 10.7808L43.0159 14.5388L24.4178 14.5478C24.0532 14.5478 23.3446 14.6459 23.3446 14.6459C20.8293 15.1515 19.1176 20.0045 17.3827 23.5894ZM24.7276 29.2108C25.6444 29.2102 26.3926 29.9648 26.3933 30.8942C26.3939 31.0866 26.3609 31.2711 26.3019 31.4435C26.0783 32.1017 25.4632 32.5788 24.737 32.5805C24.0099 32.5808 23.3918 32.1077 23.163 31.4508C23.1026 31.2774 23.0676 31.092 23.067 30.8982C23.0667 29.9688 23.8119 29.2128 24.7276 29.2108ZM21.2059 31.3897C21.4801 33.1785 22.9983 34.5535 24.8261 34.5525H24.8298C25.8058 34.5508 26.7229 34.1605 27.4115 33.4531C27.9681 32.8812 28.3179 32.1571 28.432 31.3734C28.4594 31.1869 28.4771 30.9985 28.4771 30.8066C28.4704 28.7506 26.8343 27.0785 24.8118 27.0794C23.8327 27.0811 22.9133 27.4711 22.223 28.1788C21.5333 28.8855 21.155 29.8254 21.1575 30.824C21.1581 31.0168 21.1775 31.2046 21.2059 31.3897ZM4.06287 8.70507C8.67303 0.0140623 11.2879 0.0127237 12.2723 0.0123883L38.0398 6.01115e-07C40.7797 -0.00133786 43.0099 2.23269 43.0113 4.97993L43.0129 8.87415L22.1706 8.88419C21.3121 8.88653 20.305 8.97725 19.2552 9.94745L14.2047 9.96353C13.4876 9.96453 12.8124 10.2521 12.3033 10.774C11.7943 11.296 11.5147 11.988 11.517 12.7225L11.5193 12.8433L11.5204 15.1122C11.521 15.8748 12.1709 16.5343 13.0663 16.6809L13.3158 16.7222L13.3044 12.618L12.783 12.6184C12.8301 11.8631 13.4523 11.2551 14.2104 11.2535L18.0089 11.2444C14.5483 15.2363 11.0561 22.2937 11.0598 25.0882C11.0598 25.0882 11.0601 25.2411 11.0612 25.4905L13.1766 25.4892L13.1773 26.9077L11.0652 26.9114C11.0692 28.2425 11.0738 29.8508 11.0738 30.0674C11.0743 30.4471 11.1558 31.1571 12.2241 31.1531C12.4472 31.1531 15.3166 31.146 19.9672 31.1354C19.9458 30.9495 19.9321 30.7611 19.9318 30.5698C19.9281 29.2377 20.433 27.9849 21.3529 27.0418C22.2733 26.0988 23.4987 25.5782 24.8216 25.5766C27.4976 25.5752 29.6816 27.8039 29.6897 30.5454C29.69 30.7369 29.6773 30.9043 29.6572 31.0915C33.2644 31.0831 38.7024 31.0938 43.0236 31.0854L43.0256 35.0042C43.027 37.7503 40.7988 39.9863 38.0589 39.9877L12.2913 40.0002C11.3053 40.0005 8.68641 40.0017 4.06749 31.208C2.19195 27.6375 0.00118256 22.5374 -0.000202179 19.916C-0.00112534 17.296 2.18749 12.2391 4.06287 8.70507ZM24.6443 18.8771L43.0182 18.8683L43.0189 20.4408L23.0619 20.4506L23.4559 19.5677C23.7047 19.1402 24.1566 18.8774 24.6443 18.8771ZM33.6004 25.8068L33.4864 25.6122L43.0212 25.6075L43.0219 26.506L35.0273 26.5102C34.4102 26.5102 33.8509 26.2346 33.6004 25.8068Z" fill="#C14C97"/>
</g>
</svg>
